<svg xmlns="http://www.w3.org/2000/svg" xmlns:xlink="http://www.w3.org/1999/xlink" fill="none" version="1.1" width="48" height="47" viewBox="0 0 48 47"><defs><linearGradient x1="-1.554312234475219e-14" y1="2.0872192862952943e-14" x2="-1.554312234475219e-14" y2="0.9978667497634888" id="master_svg0_4_4586"><stop offset="0%" stop-color="#5B247A" stop-opacity="1"/><stop offset="100%" stop-color="#1BCEDF" stop-opacity="1"/></linearGradient></defs><g><g><g><g><path d="M12.901074409484863,39.55315157470703C13.852954409484862,40.17415157470703,21.799624409484863,45.16765157470703,30.484874409484863,41.50695157470703C38.115174409484865,38.290851574707034,43.152874409484866,29.728261574707034,42.844174409484864,20.17005157470703C41.532974409484865,20.59888257470703,40.22187440948486,21.027709574707032,38.91067440948486,21.456541574707032C38.936674409484866,23.05549157470703,38.890874409484866,30.197151574707032,33.842874409484864,35.647651574707034C28.693574409484864,41.20755157470703,20.410564409484863,42.771351574707026,12.901074409484863,39.55315157470703Z" fill="#5283E5" fill-opacity="1" style="mix-blend-mode:passthrough"/></g></g><g><g><path d="M41.805873662948606,16.021046164321902C39.39347366294861,7.4556961643219,31.95547366294861,1.2157461643218994,23.15217366294861,1.2157461643218994C12.394613662948608,1.2157461643218994,3.6738736629486084,10.5328461643219,3.6738736629486084,22.0260461643219C3.6738736629486084,26.8220461643219,5.193293662948609,31.2382461643219,7.744673662948609,34.7575461643219C8.452733662948608,34.0770461643219,9.160793662948608,33.3964461643219,9.86885366294861,32.7159461643219L9.86885366294861,19.4123461643219L12.865843662948608,19.4123461643219L12.865843662948608,29.8356461643219C13.662663662948608,29.0697461643219,14.459473662948609,28.3039461643219,15.256273662948608,27.538146164321898L15.256273662948608,16.5535461643219L18.253273662948608,16.5535461643219L18.253273662948608,24.6577461643219C19.07747366294861,23.8656461643219,19.901673662948607,23.0735461643219,20.725873662948608,22.2814461643219L20.725873662948608,13.980446164321899L23.722773662948608,13.980446164321899L23.722773662948608,19.4010461643219C23.722773662948608,20.8578461643219,23.722773662948608,22.3145461643219,23.722773662948608,23.771246164321898C24.44767366294861,22.998346164321898,25.24377366294861,22.2018461643219,26.113273662948608,21.3983461643219L26.113273662948608,11.1217061643219L29.110273662948607,11.1217061643219L29.110273662948607,18.8573461643219C29.827073662948607,18.3012461643219,30.58247366294861,17.7510461643219,31.37587366294861,17.2117461643219L31.37587366294861,9.3205561643219L34.37287366294861,9.3205561643219L34.37287366294861,15.3452461643219C34.90077366294861,15.045246164321899,35.42137366294861,14.763146164321899,35.93197366294861,14.4999461643219C35.72977366294861,16.240746164321898,35.52757366294861,17.9814461643219,35.32537366294861,19.7221461643219C37.48557366294861,18.4884461643219,39.64567366294861,17.2547461643219,41.805873662948606,16.021046164321902Z" fill="#5283E5" fill-opacity="1" style="mix-blend-mode:passthrough"/></g></g><g><g><path d="M9.86885196899414,32.715983747863774C9.16079196899414,33.39648374786377,8.45272196899414,34.07698374786377,7.744661968994141,34.75748374786377C7.289351968994141,34.129683747863766,6.8146519689941405,33.40118374786377,6.355581968994141,32.56778374786377C5.657582968994141,31.30058374786377,5.166696968994141,30.10148374786377,4.817111968994141,29.06518374786377L9.86885196899414,19.412283747863768L9.86885196899414,32.715983747863774ZM15.25631196899414,27.53818374786377C15.25631196899414,23.87668374786377,15.25631196899414,20.21508374786377,15.25631196899414,16.55356374786377C14.46347196899414,18.05434374786377,13.67066196899414,19.55518374786377,12.87784196899414,21.055883747863767C12.87384196899414,23.982483747863768,12.869841968994141,26.909083747863768,12.865841968994141,29.83558374786377C13.66266196899414,29.06978374786377,14.45947196899414,28.303983747863768,15.25631196899414,27.53818374786377ZM20.72581196899414,22.281483747863767C20.72581196899414,19.51448374786377,20.72581196899414,16.74746374786377,20.72581196899414,13.98046374786377C19.90511196899414,15.51035374786377,19.08441196899414,17.04023374786377,18.26361196899414,18.570123747863768C18.260211968994142,20.59938374786377,18.25671196899414,22.62858374786377,18.25331196899414,24.657783747863768C19.07751196899414,23.86568374786377,19.90161196899414,23.073583747863772,20.72581196899414,22.281483747863767ZM26.11331196899414,21.398283747863772C26.11331196899414,17.97278374786377,26.11331196899414,14.54724374786377,26.11331196899414,11.12170374786377C25.316611968994142,12.70971374786377,24.52001196899414,14.29773374786377,23.72331196899414,15.88574374786377C23.72311196899414,18.51423374786377,23.72301196899414,21.14268374786377,23.72281196899414,23.77118374786377C24.51961196899414,22.98028374786377,25.316411968994142,22.18928374786377,26.11331196899414,21.398283747863772ZM31.38081196899414,17.30056374786377C31.38081196899414,14.64090374786377,31.38081196899414,11.98124374786377,31.38081196899414,9.32158374786377C30.62391196899414,10.830243747863769,29.86711196899414,12.338913747863769,29.11021196899414,13.84758374786377C29.11021196899414,15.51750374786377,29.11021196899414,17.18741374786377,29.11021196899414,18.85733374786377C29.86711196899414,18.33840374786377,30.62391196899414,17.819493747863767,31.38081196899414,17.30056374786377Z" fill="url(#master_svg0_4_4586)" fill-opacity="1" style="mix-blend-mode:passthrough"/></g></g><g><g><path d="M48,17.725175432128907C46.5372,16.391035432128906,45.0744,15.056895432128906,43.6115,13.722755432128906C43.7543,14.942535432128906,43.897,16.162325432128906,44.0397,17.382115432128906C40.7047,18.917315432128905,36.8422,20.970695432128906,32.7323,23.721825432128906C33.0406,21.780125432128905,33.349,19.838415432128905,33.6573,17.896705432128904C32.2132,18.868975432128906,30.7271,19.935025432128906,29.2145,21.104085432128905C27.2479,22.624035432128906,25.6822,23.974055432128907,24.6128,24.929555432128907C23.4153,25.999355432128908,22.3964,26.971155432128906,21.5773,27.778855432128907C21.5483,26.239255432128907,21.5193,24.699655432128907,21.4904,23.16010543212891C16.577,27.881055432128907,11.6636,32.601955432128904,6.75015,37.322855432128904C5.27328,38.69625543212891,3.36143,38.726355432128905,2.46794,37.79575543212891C1.38976,36.672855432128905,2.11219,34.481955432128906,2.61764,33.505055432128906C3.18269,32.41295543212891,4.00731,31.812355432128907,4.45309,31.536155432128908C4.50796,30.998955432128906,4.56284,30.461855432128907,4.61772,29.924655432128905C1.30916,32.19845543212891,-0.493493,35.5158554321289,0.118121,38.261055432128906C0.226253,38.74645543212891,0.604542,40.0877554321289,1.7698,40.952155432128905C3.45785,42.2042554321289,6.08074,41.92375543212891,8.34658,40.170055432128905C11.8915,36.92935543212891,15.4364,33.68875543212891,18.9812,30.448055432128907C13.6056,36.220355432128905,9.65507,42.03785543212891,6.7914,46.99995543212891C10.1161,42.519155432128905,14.7939,37.13565543212891,21.1341,32.01955543212891C23.6901,29.957055432128907,26.1899,28.201455432128906,28.5584,26.706655432128905C23.2314,30.768455432128906,19.0697,34.950455432128905,15.9429,38.537755432128904C22.3548,32.971255432128906,30.2908,27.550655432128906,39.9188,23.557275432128904C41.2167,23.018935432128906,42.502,22.524555432128906,43.7721,22.070655432128905C43.4867,23.614445432128907,43.2012,25.158255432128904,42.9158,26.70205543212891C44.6105,23.709745432128905,46.3053,20.717455432128908,48,17.725175432128907Z" fill="#17439B" fill-opacity="1" style="mix-blend-mode:passthrough"/></g></g><g><g><path d="M22.262857627105713,0C11.218977627105712,0,2.266157627105713,9.56503,2.266157627105713,21.3641Q2.266157627105713,24.4463,3.127051627105713,27.582C4.195367627105713,31.3299,6.002207627105713,33.9293,7.152197627105713,35.3491C7.513617627105713,34.9942,7.875047627105713,34.6393,8.236477627105714,34.2844C8.230827627105713,34.2762,8.225187627105713,34.268,8.219537627105712,34.2598C5.946867627105712,30.9017,4.6067476271057135,26.7759,4.6067476271057135,22.315C4.6067476271057135,11.0411,13.161057627105713,1.90184,23.71335762710571,1.90184C30.900457627105713,1.90184,37.15955762710571,6.14223,40.42155762710571,12.4083C37.251057627105716,5.08305,30.313057627105714,0,22.262857627105713,0Z" fill="#17439B" fill-opacity="1" style="mix-blend-mode:passthrough"/></g></g></g></g></svg>